<svg width="40" height="32" viewBox="0 0 40 32" fill="none" xmlns="http://www.w3.org/2000/svg">
<path fill-rule="evenodd" clip-rule="evenodd" d="M8.30833 0C6.025 0 4.33667 1.99833 4.41333 4.16333C4.485 6.24667 4.39167 8.94167 3.71333 11.14C3.03 13.3433 1.88 14.74 0 14.92V16.945C1.88 17.1233 3.03167 18.52 3.71167 20.725C4.39167 22.9233 4.485 25.6183 4.41167 27.7C4.33667 29.8667 6.025 31.865 8.30833 31.865H31.695C33.9783 31.865 35.6667 29.8667 35.59 27.7C35.5183 25.6183 35.6117 22.9233 36.29 20.725C36.9717 18.52 38.12 17.125 40 16.945V14.92C38.12 14.74 36.9717 13.3433 36.29 11.14C35.6117 8.94 35.5183 6.245 35.59 4.16333C35.6667 1.99667 33.9767 0 31.695 0H8.30833ZM27.1167 19.615C27.1167 22.5983 24.8917 24.4067 21.2 24.4067H14.915C14.7351 24.4067 14.5626 24.3352 14.4353 24.208C14.3081 24.0808 14.2367 23.9082 14.2367 23.7283V8.135C14.2371 7.95538 14.3088 7.78328 14.4359 7.65642C14.5631 7.52957 14.7354 7.45833 14.915 7.45833H21.165C24.2433 7.45833 26.265 9.125 26.265 11.6867C26.265 13.4833 24.905 15.0917 23.1733 15.375V15.4683C25.5317 15.7267 27.1167 17.36 27.1167 19.615ZM20.5167 9.60667H16.9333V14.67H19.9517C22.285 14.67 23.5717 13.73 23.5717 12.05C23.5717 10.4767 22.465 9.60667 20.5167 9.60667ZM16.9333 16.6783V22.2567H20.65C23.0783 22.2567 24.3667 21.2817 24.3667 19.45C24.3667 17.6167 23.0433 16.6783 20.4933 16.6783H16.9333Z" fill="#1F1840"/>
</svg>
