<svg width="25" height="25" viewBox="0 0 25 25" fill="none" xmlns="http://www.w3.org/2000/svg">
<rect width="25" height="25" rx="2" fill="#FEB0EC"/>
<path fill-rule="evenodd" clip-rule="evenodd" d="M16.5106 1.00001C17.0077 0.997747 17.4128 1.39759 17.4152 1.89308C17.4175 2.38859 17.0164 2.79244 16.5194 2.79491L15.9594 2.79666V7.20765C16.1666 7.92927 16.8055 9.0932 17.62 10.3549C18.4446 11.6321 19.3683 12.89 19.9646 13.6546C20.4178 14.2308 21.6861 15.9747 23.2656 18.4941C24.1911 19.9704 24.1881 21.2897 23.5566 22.3153C22.9825 23.2477 21.9964 23.7542 21.3017 23.9586L21.1699 23.998L21.0327 23.9954C17.9748 23.9458 10.7193 23.8769 6.12842 23.9954C3.73354 24.0571 2.1851 23.5008 1.44368 22.3889C0.706427 21.2831 1.02663 20.0219 1.41027 19.2952L1.43225 19.2531L1.4595 19.2128C2.97159 16.9671 6.29599 12.0195 7.51652 10.1647C8.10409 9.27172 8.47001 8.56884 8.68748 8.06566C8.7963 7.81385 8.86611 7.6163 8.90814 7.47408C8.94101 7.3628 8.9515 7.30141 8.95473 7.28215V2.82821L8.34903 2.83172C7.85187 2.83398 7.4467 2.43429 7.44443 1.93865C7.44225 1.44317 7.84326 1.04011 8.34024 1.0377L16.5106 1.00001ZM10.7551 2.82032V7.35226L10.7534 7.37767C10.735 7.70687 10.5931 8.19238 10.3411 8.77556C10.0763 9.38814 9.65752 10.1824 9.02154 11.1489C8.34177 12.1819 7.01551 14.1637 5.71172 16.1076C6.04926 17.12 7.02825 17.7109 9.2589 16.5152C12.971 14.5253 14.5194 14.3874 15.7133 14.2829C16.6763 14.1987 17.2627 13.8636 17.5989 13.495C17.1241 12.8409 16.5984 12.0891 16.1062 11.3268C15.2716 10.034 14.4427 8.58522 14.1854 7.54156L14.159 7.43639V2.80542L10.7551 2.82032Z" fill="#040001"/>
</svg>
