<svg width="22" height="21" viewBox="0 0 22 21" fill="none" xmlns="http://www.w3.org/2000/svg">
<path d="M21.0005 8.38542C19.9416 9.27019 18.575 9.69904 17.2004 9.57798C15.8258 9.45692 14.5552 8.79583 13.6672 7.73958C11.813 5.53125 12.1047 2.22917 14.3026 0.40625L14.8339 0.0104167C13.972 0.944935 13.4798 2.16123 13.4491 3.43213C13.4184 4.70304 13.8514 5.94166 14.6672 6.91667C16.3651 8.9375 19.3026 9.33333 21.4797 7.92708L21.0005 8.38542ZM19.1464 12.6458C18.3621 13.3072 17.4549 13.8071 16.4769 14.117C15.4989 14.4268 14.4694 14.5405 13.4473 14.4515C12.4253 14.3624 11.4309 14.0724 10.5212 13.5981C9.61154 13.1238 8.80449 12.4745 8.14638 11.6875C5.36513 8.38542 5.80263 3.45833 9.10471 0.666667L10.063 0C8.82561 1.40168 8.13239 3.20095 8.10945 5.07055C8.08651 6.94015 8.73538 8.75588 9.93804 10.1875C12.4589 13.1667 16.7505 13.8229 19.9901 11.8333L19.1464 12.6458ZM17.9693 17.7292C13.3443 21.6146 6.43804 21.0104 2.55263 16.375C-1.32237 11.75 -0.718205 4.83333 3.90679 0.96875L5.06304 0.145833C1.40679 4.10417 1.17763 10.2813 4.75054 14.5417C8.32346 18.7917 14.4485 19.6458 19.0005 16.7396L17.9693 17.7292Z" fill="#63A2FF"/>
</svg>
