<svg width="19" height="19" viewBox="0 0 19 19" fill="none" xmlns="http://www.w3.org/2000/svg">
<path d="M0 0V18.75H18.75V0H0ZM9.375 9.375H10.9375V15.625C10.9363 16.039 10.7712 16.4357 10.4785 16.7285C10.1857 17.0212 9.78902 17.1863 9.375 17.1875H7.8125C7.39848 17.1863 7.00177 17.0212 6.70901 16.7285C6.41625 16.4357 6.25124 16.039 6.25 15.625V14.0625H7.8125V15.625H9.375V9.375ZM14.0625 9.375H17.1875V10.9375H14.0625V12.5H15.625C16.039 12.5012 16.4357 12.6663 16.7285 12.959C17.0212 13.2518 17.1863 13.6485 17.1875 14.0625V15.625C17.1863 16.039 17.0212 16.4357 16.7285 16.7285C16.4357 17.0212 16.039 17.1863 15.625 17.1875H12.5V15.625H15.625V14.0625H14.0625C13.6485 14.0613 13.2518 13.8962 12.959 13.6035C12.6663 13.3107 12.5012 12.914 12.5 12.5V10.9375C12.5012 10.5235 12.6663 10.1268 12.959 9.83401C13.2518 9.54125 13.6485 9.37624 14.0625 9.375Z" fill="#FFCA28"/>
</svg>
