<svg width="29" height="20" viewBox="0 0 29 20" fill="none" xmlns="http://www.w3.org/2000/svg">
<path d="M27.25 2.45833V17.0417C27.25 17.4284 27.0964 17.7994 26.8229 18.0729C26.5494 18.3464 26.1784 18.5 25.7917 18.5H2.45833C2.07156 18.5 1.70063 18.3464 1.42714 18.0729C1.15365 17.7994 1 17.4284 1 17.0417V2.45833M27.25 2.45833C27.25 2.07156 27.0964 1.70063 26.8229 1.42714C26.5494 1.15365 26.1784 1 25.7917 1H2.45833C2.07156 1 1.70063 1.15365 1.42714 1.42714C1.15365 1.70063 1 2.07156 1 2.45833M27.25 2.45833L15.9917 11.8398C15.4676 12.2763 14.8071 12.5154 14.125 12.5154C13.4429 12.5154 12.7824 12.2763 12.2583 11.8398L1 2.45833" stroke="#1F1840" stroke-width="2" stroke-linecap="round" stroke-linejoin="round"/>
</svg>
