<svg width="25" height="25" viewBox="0 0 25 25" fill="none" xmlns="http://www.w3.org/2000/svg">
<path d="M19.1406 0H5.85938C2.62333 0 0 2.62333 0 5.85938V19.1406C0 22.3767 2.62333 25 5.85938 25H19.1406C22.3767 25 25 22.3767 25 19.1406V5.85938C25 2.62333 22.3767 0 19.1406 0Z" fill="#001E36"/>
<path d="M5.625 17.3867V6.66796C5.625 6.59501 5.65625 6.55341 5.7292 6.55341C5.90625 6.55341 6.07295 6.55341 6.3125 6.54296C6.5625 6.53251 6.82295 6.53251 7.1042 6.52216C7.38545 6.51171 7.6875 6.51171 8.01045 6.50126C8.3333 6.49091 8.6458 6.49091 8.9583 6.49091C9.8125 6.49091 10.5208 6.59501 11.1042 6.81376C11.6271 6.99138 12.1039 7.28317 12.5 7.66796C12.8356 8.00478 13.0949 8.40974 13.2604 8.85546C13.4167 9.29296 13.5 9.7409 13.5 10.2097C13.5 11.1055 13.2917 11.8451 12.875 12.4284C12.4583 13.0117 11.875 13.4492 11.1979 13.6992C10.4896 13.9597 9.7083 14.0534 8.8542 14.0534C8.6042 14.0534 8.4375 14.0534 8.3333 14.043C8.2291 14.0325 8.0833 14.0325 7.88545 14.0325V17.3763C7.8958 17.4492 7.84375 17.5117 7.7708 17.5222H5.75C5.6667 17.5222 5.625 17.4805 5.625 17.3867ZM7.8958 8.56376V12.0638C8.0417 12.0742 8.17705 12.0847 8.30205 12.0847H8.8542C9.26045 12.0847 9.6667 12.0222 10.0521 11.8972C10.3854 11.8034 10.6771 11.6055 10.9063 11.345C11.125 11.0847 11.2292 10.7305 11.2292 10.2722C11.239 9.94662 11.1559 9.62503 10.9896 9.34501C10.8125 9.07421 10.5625 8.86591 10.2604 8.75126C9.875 8.59501 9.4583 8.53251 9.03125 8.54296C8.76045 8.54296 8.5208 8.54296 8.32295 8.55341C8.11455 8.54296 7.96875 8.55341 7.8958 8.56376ZM20 11.4284C19.6875 11.2617 19.3542 11.1472 19 11.0742C18.6145 10.9909 18.2292 10.9388 17.8333 10.9388C17.625 10.9284 17.4062 10.9597 17.2083 11.0117C17.0729 11.043 16.9583 11.1159 16.8854 11.22C16.8333 11.3034 16.8021 11.4075 16.8021 11.5013C16.8021 11.595 16.8437 11.6888 16.9062 11.7722C17 11.8867 17.125 11.9805 17.2604 12.0534C17.502 12.1784 17.7487 12.2931 18 12.3972C18.5625 12.5847 19.1042 12.845 19.6042 13.1575C19.9479 13.3763 20.2292 13.668 20.4271 14.0222C20.5937 14.3555 20.6771 14.72 20.6667 15.095C20.6771 15.5847 20.5313 16.0742 20.2604 16.4805C19.9699 16.8963 19.5645 17.2184 19.0938 17.4075C18.5833 17.6263 17.9583 17.7409 17.2083 17.7409C16.7292 17.7409 16.2604 17.6992 15.7917 17.6055C15.4243 17.542 15.067 17.4299 14.7292 17.2722C14.6562 17.2305 14.6042 17.1575 14.6146 17.0742V15.2617C14.6146 15.2305 14.625 15.1888 14.6563 15.168C14.6875 15.1472 14.7187 15.1575 14.75 15.1784C15.1562 15.418 15.5833 15.5847 16.0417 15.6888C16.4375 15.793 16.8542 15.845 17.2708 15.845C17.6667 15.845 17.9479 15.793 18.1354 15.6992C18.3021 15.6263 18.4167 15.4492 18.4167 15.2617C18.4167 15.1159 18.3333 14.9805 18.1667 14.845C18 14.7097 17.6562 14.5534 17.1458 14.3555C16.6222 14.1709 16.125 13.9188 15.6667 13.6055C15.3402 13.3729 15.0698 13.0704 14.875 12.72C14.7083 12.3867 14.625 12.0222 14.6354 11.6575C14.6354 11.2097 14.7604 10.7825 14.9896 10.3972C15.25 9.98046 15.6354 9.64716 16.0833 9.43876C16.5729 9.18876 17.1875 9.07421 17.9271 9.07421C18.3542 9.07421 18.7917 9.10546 19.2188 9.16796C19.5313 9.20966 19.8333 9.29296 20.1146 9.40751C20.1563 9.41796 20.1979 9.45966 20.2188 9.50126C20.2292 9.54296 20.2396 9.58466 20.2396 9.62626V11.3242C20.2396 11.3659 20.2187 11.4075 20.1875 11.4284C20.0937 11.4492 20.0417 11.4492 20 11.4284Z" fill="#31A8FF"/>
</svg>
