<svg width="19" height="22" viewBox="0 0 19 22" fill="none" xmlns="http://www.w3.org/2000/svg">
<path d="M9.32254 13.0493C8.94676 13.222 8.53504 13.447 7.71082 13.8993C7.39832 14.0751 7.07176 14.2509 6.76785 14.4165C6.74676 14.3954 6.72488 14.3688 6.70379 14.347C5.07332 12.6048 2.05769 11.3743 2.18582 9.03445C2.23347 8.18211 2.52644 5.94461 7.97722 3.22742C12.4632 1.01648 16.0327 1.62898 16.6491 2.98758C17.535 4.9243 14.7358 8.5282 10.103 9.05086C9.59026 9.1548 9.06072 9.14222 8.55349 9.01402C8.04627 8.88583 7.57433 8.64531 7.17254 8.31023C6.92722 8.04383 6.89051 8.0282 6.79988 8.08133C6.65066 8.15945 6.74676 8.40086 6.79988 8.53914C6.9766 8.8591 7.21567 9.14038 7.50297 9.36635C7.79027 9.59232 8.11995 9.7584 8.47254 9.85477C10.2957 10.2488 12.1965 10.0605 13.9069 9.31648C16.7147 8.22977 18.9069 5.20867 18.2647 2.67586C17.6202 0.10789 13.3577 -0.738985 9.32488 0.693828C6.79931 1.54492 4.46592 2.88469 2.45769 4.6368C0.235818 6.71492 -0.115744 8.52117 0.0280057 9.27742C0.545193 11.9626 4.24676 13.7102 5.73113 15.0048C5.65405 15.0464 5.5866 15.0837 5.52879 15.1165C4.78816 15.4845 1.96472 16.9602 1.26082 18.5212C0.4616 20.2899 1.38894 21.5579 2.00144 21.7282C2.92448 21.9495 3.89361 21.877 4.77339 21.5206C5.65317 21.1643 6.39964 20.542 6.90847 19.7407C7.34072 19.0764 7.60614 18.3175 7.68218 17.5286C7.75821 16.7397 7.64261 15.9441 7.34519 15.2095C7.5206 15.0694 7.70775 14.9447 7.90457 14.8368C8.28269 14.6134 8.64285 14.393 8.96238 14.2227C10.0566 13.7109 11.2504 13.4471 12.4585 13.4501C14.9944 13.7485 15.4952 15.3305 15.3991 15.997C15.354 16.2333 15.2589 16.4573 15.1201 16.6539C14.9813 16.8505 14.8021 17.0152 14.5944 17.1368C14.4186 17.2485 14.36 17.286 14.3757 17.3657C14.3968 17.4829 14.4819 17.4774 14.6311 17.4563C15.0121 17.3359 15.3478 17.1031 15.5941 16.7884C15.8403 16.4737 15.9856 16.0918 16.0108 15.693C16.0889 14.1305 14.5991 12.4165 11.9616 12.4321C11.1719 12.4344 10.3903 12.5902 9.66004 12.8907C9.54285 12.9391 9.42905 12.9912 9.31863 13.047L9.32254 13.0493ZM5.55301 19.1735C4.71082 20.0899 3.53894 20.436 3.03269 20.143C2.48582 19.8305 2.70222 18.4751 3.73582 17.5055C4.34746 16.9534 5.00917 16.4593 5.71238 16.0298C5.83504 15.9516 6.01629 15.8485 6.23426 15.7173L6.29285 15.6852L6.42097 15.6071C6.60515 16.2252 6.62184 16.8811 6.46934 17.5077C6.31683 18.1343 6.0006 18.7092 5.55301 19.1735Z" fill="#CD6799"/>
</svg>
