<svg width="30" height="35" viewBox="0 0 30 35" fill="none" xmlns="http://www.w3.org/2000/svg">
<path d="M14.9161 20.8789C14.3148 21.1551 13.6561 21.5151 12.3373 22.2389C11.8373 22.5201 11.3148 22.8014 10.8286 23.0664C10.7948 23.0326 10.7598 22.9901 10.7261 22.9551C8.11731 20.1676 3.29231 18.1989 3.49731 14.4551C3.57356 13.0914 4.04231 9.51137 12.7636 5.16387C19.9411 1.62637 25.6523 2.60637 26.6386 4.78012C28.0561 7.87887 23.5773 13.6451 16.1648 14.4814C15.3444 14.6477 14.4971 14.6275 13.6856 14.4224C12.874 14.2173 12.1189 13.8325 11.4761 13.2964C11.0836 12.8701 11.0248 12.8451 10.8798 12.9301C10.6411 13.0551 10.7948 13.4414 10.8798 13.6626C11.1626 14.1746 11.5451 14.6246 12.0048 14.9862C12.4644 15.3477 12.9919 15.6134 13.5561 15.7676C16.4731 16.3981 19.5144 16.0969 22.2511 14.9064C26.7436 13.1676 30.2511 8.33387 29.2236 4.28137C28.1923 0.172624 21.3723 -1.18238 14.9198 1.11012C10.8789 2.47187 7.14547 4.61551 3.93231 7.41887C0.377308 10.7439 -0.185191 13.6339 0.0448091 14.8439C0.872309 19.1401 6.79481 21.9364 9.16981 24.0076C9.04648 24.0743 8.93856 24.1339 8.84606 24.1864C7.66106 24.7751 3.14356 27.1364 2.01731 29.6339C0.738559 32.4639 2.22231 34.4926 3.20231 34.7651C4.67917 35.1193 6.22977 35.0032 7.63742 34.433C9.04507 33.8629 10.2394 32.8672 11.0536 31.5851C11.7452 30.5222 12.1698 29.308 12.2915 28.0458C12.4131 26.7835 12.2282 25.5106 11.7523 24.3351C12.033 24.111 12.3324 23.9115 12.6473 23.7389C13.2523 23.3814 13.8286 23.0289 14.3398 22.7564C16.0906 21.9374 18.0007 21.5153 19.9336 21.5201C23.9911 21.9976 24.7923 24.5289 24.6386 25.5951C24.5664 25.9733 24.4142 26.3317 24.1921 26.6463C23.9701 26.9608 23.6833 27.2243 23.3511 27.4189C23.0698 27.5976 22.9761 27.6576 23.0011 27.7851C23.0348 27.9726 23.1711 27.9639 23.4098 27.9301C24.0194 27.7375 24.5565 27.3649 24.9505 26.8614C25.3445 26.3579 25.5769 25.7469 25.6173 25.1089C25.7423 22.6089 23.3586 19.8664 19.1386 19.8914C17.8751 19.895 16.6244 20.1443 15.4561 20.6251C15.2686 20.7026 15.0865 20.786 14.9098 20.8751L14.9161 20.8789ZM8.88481 30.6776C7.53731 32.1439 5.66231 32.6976 4.85231 32.2289C3.97731 31.7289 4.32356 29.5601 5.97731 28.0089C6.95594 27.1254 8.01467 26.3349 9.13981 25.6476C9.33606 25.5226 9.62606 25.3576 9.97481 25.1476L10.0686 25.0964L10.2736 24.9714C10.5682 25.9603 10.5949 27.0097 10.3509 28.0123C10.1069 29.0149 9.60097 29.9347 8.88481 30.6776Z" fill="#CD6799"/>
</svg>
