<svg width="54" height="54" viewBox="0 0 54 54" fill="none" xmlns="http://www.w3.org/2000/svg">
<path fill-rule="evenodd" clip-rule="evenodd" d="M7.5033 18.5658C5.8432 18.2272 4.30586 17.4451 3.05464 16.3027C1.80342 15.1604 0.885073 13.7003 0.397195 12.0778C-0.0906828 10.4553 -0.129865 8.73089 0.283811 7.08789C0.697488 5.44488 1.54857 3.94465 2.74661 2.74661C3.94465 1.54857 5.44488 0.697488 7.08789 0.283811C8.73089 -0.129865 10.4553 -0.0906828 12.0778 0.397195C13.7003 0.885073 15.1604 1.80342 16.3027 3.05464C17.4451 4.30586 18.2272 5.8432 18.5658 7.5033H35.1908C35.5294 5.8432 36.3115 4.30586 37.4539 3.05464C38.5963 1.80342 40.0563 0.885073 41.6788 0.397195C43.3013 -0.0906828 45.0257 -0.129865 46.6687 0.283811C48.3117 0.697488 49.812 1.54857 51.01 2.74661C52.208 3.94465 53.0591 5.44488 53.4728 7.08789C53.8865 8.73089 53.8473 10.4553 53.3594 12.0778C52.8715 13.7003 51.9532 15.1604 50.702 16.3027C49.4507 17.4451 47.9134 18.2272 46.2533 18.5658V35.1908C47.9134 35.5294 49.4507 36.3115 50.702 37.4539C51.9532 38.5963 52.8715 40.0563 53.3594 41.6788C53.8473 43.3013 53.8865 45.0257 53.4728 46.6687C53.0591 48.3117 52.208 49.812 51.01 51.01C49.812 52.208 48.3117 53.0591 46.6687 53.4728C45.0257 53.8865 43.3013 53.8473 41.6788 53.3594C40.0563 52.8715 38.5963 51.9532 37.4539 50.702C36.3115 49.4507 35.5294 47.9134 35.1908 46.2533H18.5658C18.2272 47.9134 17.4451 49.4507 16.3027 50.702C15.1604 51.9532 13.7003 52.8715 12.0778 53.3594C10.4553 53.8473 8.73089 53.8865 7.08789 53.4728C5.44488 53.0591 3.94465 52.208 2.74661 51.01C1.54857 49.812 0.697488 48.3117 0.283811 46.6687C-0.129865 45.0257 -0.0906828 43.3013 0.397195 41.6788C0.885073 40.0563 1.80342 38.5963 3.05464 37.4539C4.30586 36.3115 5.8432 35.5294 7.5033 35.1908V18.5658ZM3.7533 9.3783C3.7533 8.63962 3.8988 7.90816 4.18148 7.22571C4.46416 6.54325 4.8785 5.92316 5.40083 5.40083C5.92316 4.8785 6.54325 4.46416 7.22571 4.18148C7.90816 3.8988 8.63962 3.7533 9.3783 3.7533C10.117 3.7533 10.8484 3.8988 11.5309 4.18148C12.2134 4.46416 12.8334 4.8785 13.3558 5.40083C13.8781 5.92316 14.2924 6.54325 14.5751 7.22571C14.8578 7.90816 15.0033 8.63962 15.0033 9.3783C15.0033 10.8701 14.4107 12.3009 13.3558 13.3558C12.3009 14.4107 10.8701 15.0033 9.3783 15.0033C7.88646 15.0033 6.45572 14.4107 5.40083 13.3558C4.34593 12.3009 3.7533 10.8701 3.7533 9.3783ZM11.2533 35.1908V18.5658C13.055 18.1984 14.7088 17.3092 16.009 16.009C17.3092 14.7088 18.1984 13.055 18.5658 11.2533H35.1908C35.5613 13.0536 36.4514 14.7058 37.7511 16.0055C39.0508 17.3052 40.703 18.1953 42.5033 18.5658V35.1908C40.703 35.5613 39.0508 36.4514 37.7511 37.7511C36.4514 39.0508 35.5613 40.703 35.1908 42.5033H18.5658C18.1953 40.703 17.3052 39.0508 16.0055 37.7511C14.7058 36.4514 13.0536 35.5613 11.2533 35.1908ZM9.3783 38.7533C7.88646 38.7533 6.45572 39.3459 5.40083 40.4008C4.34593 41.4557 3.7533 42.8865 3.7533 44.3783C3.7533 45.8701 4.34593 47.3009 5.40083 48.3558C6.45572 49.4107 7.88646 50.0033 9.3783 50.0033C10.8701 50.0033 12.3009 49.4107 13.3558 48.3558C14.4107 47.3009 15.0033 45.8701 15.0033 44.3783C15.0033 42.8865 14.4107 41.4557 13.3558 40.4008C12.3009 39.3459 10.8701 38.7533 9.3783 38.7533ZM50.0033 9.3783C50.0033 10.8701 49.4107 12.3009 48.3558 13.3558C47.3009 14.4107 45.8701 15.0033 44.3783 15.0033C42.8865 15.0033 41.4557 14.4107 40.4008 13.3558C39.3459 12.3009 38.7533 10.8701 38.7533 9.3783C38.7533 7.88646 39.3459 6.45572 40.4008 5.40083C41.4557 4.34593 42.8865 3.7533 44.3783 3.7533C45.8701 3.7533 47.3009 4.34593 48.3558 5.40083C49.4107 6.45572 50.0033 7.88646 50.0033 9.3783ZM38.7533 44.3783C38.7533 42.8865 39.3459 41.4557 40.4008 40.4008C41.4557 39.3459 42.8865 38.7533 44.3783 38.7533C45.8701 38.7533 47.3009 39.3459 48.3558 40.4008C49.4107 41.4557 50.0033 42.8865 50.0033 44.3783C50.0033 45.8701 49.4107 47.3009 48.3558 48.3558C47.3009 49.4107 45.8701 50.0033 44.3783 50.0033C42.8865 50.0033 41.4557 49.4107 40.4008 48.3558C39.3459 47.3009 38.7533 45.8701 38.7533 44.3783Z" fill="#1F1840"/>
</svg>
