<svg width="50" height="55" viewBox="0 0 50 55" fill="none" xmlns="http://www.w3.org/2000/svg">
<path d="M27.9473 2.5C37.6973 2.5 46.9473 12.75 46.9473 22.5C46.9473 29.5 42.4473 36.75 36.4473 39.5V51.5H15.9473V43.1699H12.4469C9.69694 43.1699 8.08091 39.75 8.08091 37L6.94727 32.5L4.94694 31C3.94694 31 2.69727 28.75 3.44727 28L8.08091 20.6726C8.58091 11.1726 18.4473 2.5 27.9473 2.5ZM27.4469 0C15.9469 0 6.44694 8.5 5.19694 19.75L1.19694 25C-0.303061 27 -0.303062 29.5 0.696938 31.5C1.69694 33.25 3.19694 34.5 4.94694 34.75V37.5C4.94694 42.25 8.19694 44.75 12.4469 46V54.5L39.9469 55V41.25C46.1969 37 49.9469 30.25 49.9469 22.5C49.9469 10 39.9469 0 27.4469 0ZM19.9469 22.5C18.4469 22.5 17.4469 21.5 17.4469 20C17.4469 18.5 18.4469 17.5 19.9469 17.5C21.4469 17.5 22.4469 18.5 22.4469 20C22.4469 21.5 21.4469 22.5 19.9469 22.5ZM27.4469 22.5C25.9469 22.5 24.9469 21.5 24.9469 20C24.9469 18.5 25.9469 17.5 27.4469 17.5C28.9469 17.5 29.9469 18.5 29.9469 20C29.9469 21.5 28.9469 22.5 27.4469 22.5ZM34.9469 22.5C33.6969 22.5 32.4469 21.5 32.4469 20C32.4469 18.5 33.6969 17.5 34.9469 17.5C36.1969 17.5 37.4469 18.5 37.4469 20C37.4469 21.5 36.1969 22.5 34.9469 22.5Z" fill="#1F1840"/>
</svg>
