<svg width="60" height="59" viewBox="0 0 60 59" fill="none" xmlns="http://www.w3.org/2000/svg">
<path d="M3.94531 23.24C3.94531 24.8618 4.58957 26.4172 5.73635 27.564C6.88314 28.7107 8.43851 29.355 10.0603 29.355C11.6821 29.355 13.2375 28.7107 14.3843 27.564C15.5311 26.4172 16.1753 24.8618 16.1753 23.24C16.1753 21.6182 15.5311 20.0628 14.3843 18.916C13.2375 17.7693 11.6821 17.125 10.0603 17.125C8.43851 17.125 6.88314 17.7693 5.73635 18.916C4.58957 20.0628 3.94531 21.6182 3.94531 23.24ZM43.0753 23.24C43.0753 24.043 43.2335 24.8382 43.5408 25.5801C43.8481 26.322 44.2985 26.9961 44.8664 27.564C45.4342 28.1318 46.1083 28.5822 46.8502 28.8895C47.5921 29.1968 48.3873 29.355 49.1903 29.355C49.9933 29.355 50.7885 29.1968 51.5304 28.8895C52.2723 28.5822 52.9464 28.1318 53.5143 27.564C54.0821 26.9961 54.5325 26.322 54.8398 25.5801C55.1471 24.8382 55.3053 24.043 55.3053 23.24C55.3053 21.6182 54.6611 20.0628 53.5143 18.916C52.3675 17.7693 50.8121 17.125 49.1903 17.125C47.5685 17.125 46.0131 17.7693 44.8664 18.916C43.7196 20.0628 43.0753 21.6182 43.0753 23.24Z" stroke="#1F1840" stroke-width="3" stroke-linecap="round" stroke-linejoin="round"/>
<path d="M40.6249 57.125V40.29C37.5535 40.006 34.6313 38.8333 32.2156 36.9153C29.8 34.9973 27.9953 32.4171 27.0224 29.49L24.9174 23.1775C24.7494 22.6712 24.6937 22.1343 24.7541 21.6042C24.8145 21.0742 24.9896 20.5636 25.2673 20.108C25.5449 19.6525 25.9184 19.2628 26.3618 18.9661C26.8052 18.6694 27.3078 18.4729 27.8349 18.39C28.7221 18.2789 29.6202 18.4841 30.371 18.9698C31.1218 19.4554 31.6774 20.1902 31.9399 21.045L33.9849 27.1775C34.5529 28.8807 35.6427 30.3619 37.0997 31.411C38.5567 32.4601 40.307 33.0239 42.1024 33.0225H52.8524C53.4949 33.0222 54.1311 33.1484 54.7248 33.394C55.3186 33.6396 55.8581 33.9997 56.3126 34.4537C56.7672 34.9078 57.1278 35.447 57.374 36.0404C57.6202 36.6339 57.747 37.27 57.7474 37.9125V57.1375" stroke="#1F1840" stroke-width="3" stroke-linecap="round" stroke-linejoin="round"/>
<path d="M25.7575 25.6825L25.2575 27.1675C24.6904 28.875 23.5991 30.3601 22.1389 31.4113C20.6788 32.4625 18.9242 33.0264 17.125 33.0225H6.3875C5.09276 33.0232 3.85112 33.5373 2.93489 34.4521C2.01867 35.3669 1.50265 36.6078 1.5 37.9025V57.125M18.625 57.125V40.29C20.768 40.0913 22.8481 39.459 24.7391 38.4314C26.6301 37.4038 28.2924 36.0024 29.625 34.3125M28.375 1.5V6.5M38.16 6.7125L34.625 10.2525M18.59 6.7125L22.125 10.2525" stroke="#1F1840" stroke-width="3" stroke-linecap="round" stroke-linejoin="round"/>
</svg>
