<svg width="30" height="30" viewBox="0 0 30 30" fill="none" xmlns="http://www.w3.org/2000/svg">
<path d="M22.8717 2.22914C27.1493 4.87148 29.9998 9.60281 29.9998 15C29.9998 23.2842 23.284 30 14.9998 30C13.2459 30.0022 11.5053 29.6958 9.85758 29.0948L9.68648 29.0311L9.96539 28.9413L10.324 28.8239L10.5009 28.7646L10.6763 28.7055L11.0222 28.5863L11.3618 28.4663L11.6948 28.3455L12.0218 28.2241L12.183 28.163L12.5004 28.0402C12.8355 27.9089 13.16 27.7762 13.4738 27.642L13.707 27.5409L13.9929 27.4141C14.117 27.3582 14.2407 27.3013 14.3639 27.2435L14.5453 27.1577L14.8123 27.0281L14.9433 26.9632L15.0727 26.8978L15.327 26.7666C17.4612 25.6472 18.911 24.431 19.6809 23.0977C21.3122 20.2725 19.8874 17.2535 15.798 14.1757L15.4652 13.9263L15.2632 13.7712L15.067 13.6174L14.8765 13.4646L14.692 13.3132L14.602 13.238L14.5132 13.163L14.3402 13.0137L14.2144 12.9026L14.0918 12.792L13.9334 12.6457L13.7805 12.5004L13.6334 12.3565L13.5621 12.285L13.492 12.2135L13.3563 12.0717C11.7398 10.3533 11.3789 8.88234 12.1127 7.61109C12.4863 6.96422 13.1339 6.32813 14.0543 5.70867L14.1661 5.63438L14.3421 5.52117C14.4218 5.47102 14.5032 5.42086 14.5863 5.3707L14.7124 5.2957L14.907 5.18367L15.1073 5.07211L15.2618 4.98867L15.4195 4.90547L15.6354 4.79484C15.8036 4.71011 15.9729 4.62768 16.1433 4.54758L16.3195 4.46555L16.5598 4.3568L16.6821 4.30242L16.9315 4.19461L17.0585 4.1407L17.3173 4.03313L17.4485 3.97969L17.7164 3.87305L17.8526 3.81984L18.1296 3.71391L18.4125 3.60844L18.5562 3.55617L18.8484 3.45141L19.1466 3.34734L19.451 3.24398L19.6055 3.19242L19.9188 3.08977L20.2385 2.98758L20.5641 2.88609L20.8957 2.78508L21.2337 2.68477L21.6645 2.56008L22.1048 2.43633L22.6458 2.28914L22.8717 2.22914ZM14.9998 0C16.8239 0 18.5721 0.325781 20.1891 0.921797L20.3618 0.986719L20.2523 1.02L19.718 1.18477L19.5431 1.24008L19.1979 1.35117L18.859 1.46344L18.5264 1.57641L18.2002 1.69031L17.8802 1.80516L17.7225 1.86281L17.3353 2.00812L16.958 2.15508L16.6629 2.27344L16.5178 2.33297L16.2323 2.45297C13.3151 3.69609 11.4033 5.09016 10.4892 6.67359C8.89336 9.43758 10.3409 12.4172 14.4305 15.4941L14.7633 15.7437L14.9653 15.8988L15.1615 16.0528L15.2576 16.1295L15.4448 16.2818L15.5813 16.3952L15.7148 16.5082L15.8873 16.658L15.9717 16.7323L16.1355 16.8802C16.2249 16.9622 16.3116 17.0437 16.3957 17.1246L16.5199 17.2455L16.6988 17.426L16.8687 17.6044C18.4781 19.3348 18.8222 20.8352 18.0574 22.1602C17.5624 23.0175 16.6174 23.8613 15.2248 24.6804L15.0968 24.7549L14.8896 24.8723L14.6763 24.9893C14.5539 25.0553 14.4307 25.1201 14.307 25.1836L14.1159 25.2802L13.8809 25.3959L13.6397 25.5112L13.3924 25.6263L13.2666 25.6837L13.0099 25.7979L12.7474 25.912L12.4786 26.0255L12.3417 26.0822L12.0638 26.1949L11.9224 26.2512L11.7795 26.3074L11.4891 26.4195L11.1926 26.531L10.89 26.6421L10.5811 26.7527L10.2663 26.8629L10.1065 26.9177L9.78234 27.0272L9.61781 27.0816L9.28453 27.1903L8.94492 27.2984L8.51203 27.4329L8.0693 27.5667L7.70836 27.6729L7.20445 27.818C2.88445 25.1848 0 20.4293 0 15C0 6.71578 6.71555 0 14.9998 0Z" fill="#1F1840"/>
</svg>
